<svg width="32" height="30" viewBox="0 0 32 30" fill="none" xmlns="http://www.w3.org/2000/svg">
<path fill-rule="evenodd" clip-rule="evenodd" d="M1.4966 29.3441H1.39941C1.39941 29.2956 1.37507 29.2226 1.37507 29.198C1.37507 29.1739 1.37507 29.1254 1.30204 29.1254H1.15599V29.3441H1.08297V28.8333H1.30204C1.39941 28.8333 1.47226 28.8578 1.47226 28.9548C1.47226 29.0278 1.44791 29.0523 1.42375 29.0763C1.44809 29.1009 1.47226 29.1252 1.47226 29.1739V29.2711C1.47226 29.2956 1.47226 29.2956 1.4966 29.2956V29.3441ZM1.39941 28.9793C1.39941 28.9063 1.35072 28.9063 1.32638 28.9063H1.15599V29.0523H1.30204C1.35072 29.0523 1.39941 29.0278 1.39941 28.9793V28.9793ZM1.81304 29.0765C1.81304 28.7848 1.5698 28.5412 1.25336 28.5412C0.961434 28.5412 0.718018 28.7848 0.718018 29.0765C0.718018 29.3928 0.961434 29.6364 1.25336 29.6364C1.56962 29.6362 1.81304 29.3928 1.81304 29.0765ZM1.74001 29.0765C1.74001 29.3443 1.52112 29.5388 1.25336 29.5388C0.985599 29.5388 0.791043 29.3441 0.791043 29.0765C0.791043 28.8333 0.985776 28.6142 1.25336 28.6142C1.52094 28.6142 1.74001 28.8333 1.74001 29.0765ZM31.718 19.2462C31.718 19.9763 31.2557 20.3165 30.4282 20.3165H28.8469V19.5864H30.4282C30.5743 19.5864 30.696 19.5623 30.7449 19.5138C30.7934 19.4649 30.842 19.3919 30.842 19.2947C30.842 19.1972 30.7935 19.1 30.7449 19.0515C30.696 19.0026 30.5988 18.9784 30.4528 18.9784C29.6987 18.9539 28.7495 19.0026 28.7495 17.9321C28.7495 17.4453 29.0658 16.9099 29.9174 16.9099H31.5476V17.64H30.0389C29.8933 17.64 29.7957 17.64 29.7227 17.6885C29.6497 17.7615 29.6012 17.8345 29.6012 17.9563C29.6012 18.078 29.6742 18.151 29.7714 18.1999C29.8689 18.224 29.9663 18.2484 30.088 18.2484H30.5258C30.9881 18.2484 31.2802 18.3455 31.4749 18.5161C31.6206 18.6863 31.718 18.9056 31.718 19.2462V19.2462ZM28.2871 18.5161C28.0923 18.3455 27.8002 18.2484 27.3379 18.2484H26.9001C26.7786 18.2484 26.681 18.2238 26.5838 18.1999C26.4863 18.151 26.4136 18.078 26.4136 17.9563C26.4136 17.8345 26.4378 17.7615 26.5352 17.6885C26.6082 17.64 26.7054 17.64 26.8514 17.64H28.3601V16.9099H26.7299C25.8538 16.9099 25.5617 17.4453 25.5617 17.9321C25.5617 19.0024 26.5108 18.9539 27.2652 18.9784C27.4109 18.9784 27.5085 19.0026 27.557 19.0515C27.6055 19.1 27.6545 19.1972 27.6545 19.2947C27.6545 19.3919 27.6057 19.4649 27.557 19.5138C27.484 19.5623 27.3868 19.5864 27.2407 19.5864H25.659V20.3165H27.2407C28.0678 20.3165 28.5303 19.9761 28.5303 19.2462C28.5303 18.9056 28.4331 18.6863 28.2871 18.5161V18.5161ZM25.1724 19.6111H23.2505V18.9297H25.1239V18.2487H23.2505V17.6158H25.1724V16.9103H22.4474V20.3167H25.1724V19.6111ZM21.5712 17.0807C21.3035 16.9346 20.9872 16.9101 20.5736 16.9101H18.7002V20.3165H19.5272V19.0756H20.4034C20.6951 19.0756 20.8657 19.1001 20.9874 19.2217C21.1334 19.3919 21.1334 19.684 21.1334 19.9031V20.3165H21.9362V19.6595C21.9362 19.3432 21.912 19.1972 21.8146 19.0269C21.7416 18.9294 21.5959 18.8079 21.4012 18.7348C21.6199 18.6622 21.9852 18.3701 21.9852 17.8345C21.985 17.4454 21.839 17.2264 21.5712 17.0807V17.0807ZM16.9481 16.9101H14.3444L13.2981 18.0295L12.3004 16.9101H9.01552V20.3165H12.2519L13.2982 19.1972L14.2959 20.3165H15.8776V19.1732H16.8996C17.6051 19.1732 18.311 18.9784 18.311 18.0295C18.3109 17.1048 17.5808 16.9101 16.9481 16.9101ZM20.9142 18.3216C20.7927 18.3701 20.6709 18.3701 20.5249 18.3701L19.5272 18.3946V17.6157H20.5249C20.6709 17.6157 20.817 17.6157 20.9142 17.6887C21.0117 17.7375 21.0844 17.8347 21.0844 17.9808C21.0844 18.1268 21.0117 18.2485 20.9142 18.3216V18.3216ZM16.9481 18.4918H15.8774V17.6157H16.9481C17.2402 17.6157 17.4347 17.7375 17.4347 18.0295C17.4347 18.3216 17.24 18.4918 16.9481 18.4918ZM13.8091 18.6133L15.0743 17.2752V20.0248L13.8091 18.6133ZM11.8381 19.6111H9.81844V18.9297H11.619V18.2487H9.81844V17.6158H11.8624L12.7627 18.6135L11.8381 19.6111V19.6111ZM29.4549 14.4525H28.2871L26.7541 11.8975V14.4525H25.0997L24.7831 13.6981H23.0799L22.7636 14.4525H21.8145C21.4252 14.4525 20.9142 14.3551 20.6224 14.063C20.3547 13.7711 20.2086 13.3818 20.2086 12.7734C20.2086 12.2624 20.2817 11.8001 20.6464 11.4352C20.8897 11.1674 21.3278 11.0459 21.8873 11.0459H22.6659V11.7759H21.8873C21.5956 11.7759 21.425 11.8246 21.2548 11.9707C21.1087 12.1167 21.0357 12.3843 21.0357 12.7493C21.0357 13.1142 21.1087 13.382 21.2548 13.5524C21.3763 13.6739 21.5956 13.7226 21.8143 13.7226H22.1794L23.3473 11.0461H24.564L25.9266 14.2579V11.0459H27.192L28.6277 13.4061V11.0459H29.4548V14.4525H29.4549V14.4525ZM19.795 11.0459H18.9679V14.4525H19.795V11.0459V11.0459ZM18.0673 11.1919C17.7995 11.0459 17.5078 11.0459 17.0941 11.0459H15.2204V14.4525H16.0233V13.2114H16.8992C17.1913 13.2114 17.3861 13.2357 17.5076 13.3574C17.6536 13.5278 17.6291 13.8199 17.6291 14.0145V14.4525H18.4562V13.7711C18.4562 13.4792 18.432 13.3331 18.3105 13.1627C18.2375 13.0653 18.0914 12.9436 17.9212 12.8708C18.1399 12.7734 18.5052 12.5058 18.5052 11.9705C18.5054 11.5812 18.3348 11.3621 18.0673 11.1919ZM14.6363 13.7469H12.7384V13.0655H14.612V12.36H12.7384V11.7516H14.6363V11.0461H11.9111V14.4526H14.6363V13.7469ZM11.3028 11.0459H9.9645L8.96684 13.3574L7.89616 11.0459H6.58224V14.2577L5.19529 11.0459H3.97874L2.51877 14.4525H3.39472L3.71098 13.6981H5.41419L5.73046 14.4525H7.38516V11.7759L8.57737 14.4525H9.28293L10.4753 11.7759V14.4525H11.3026V11.0459H11.3028ZM24.4913 12.9682L23.9315 11.6299L23.372 12.9682H24.4913ZM17.4347 12.433C17.3132 12.506 17.1915 12.506 17.0211 12.506H16.0233V11.7518H17.0209C17.167 11.7518 17.337 11.7518 17.4346 11.8005C17.5318 11.8735 17.5806 11.9709 17.5806 12.1167C17.5806 12.2626 17.5319 12.3841 17.4347 12.433V12.433ZM4.00291 12.9682L4.56259 11.6299L5.12227 12.9682H4.00291V12.9682ZM31.5234 0.36377H2.49425V12.6276L3.49191 10.3647H5.60875L5.90085 10.9243V10.3647H8.38282L8.9425 11.5812L9.47784 10.3647H17.3861C17.7508 10.3647 18.0671 10.4377 18.3107 10.6322V10.3647H20.4762V10.6322C20.841 10.4375 21.3033 10.3647 21.8388 10.3647H24.9776L25.2698 10.9243V10.3647H27.5813L27.9221 10.9243V10.3647H30.1848V15.1339H27.8978L27.46 14.404V15.1339H24.6129L24.2966 14.3553H23.5907L23.2744 15.1339H21.7903C21.2063 15.1339 20.7681 14.9878 20.4764 14.8419V15.1339H16.9481V14.0388C16.9481 13.8928 16.9237 13.8684 16.8264 13.8684H16.7048V15.1337H9.89147V14.5253L9.64823 15.1337H8.2126L7.96936 14.5497V15.1337H5.21964L4.92771 14.3551H4.22198L3.90572 15.1337H2.49425V29.5145H31.5234V20.7788C31.2072 20.9249 30.769 20.9979 30.3311 20.9979H28.214V20.7058C27.9708 20.9007 27.5326 20.9979 27.1192 20.9979H20.4519V19.9031C20.4519 19.757 20.4277 19.757 20.3058 19.757H20.1843V20.9979H17.9942V19.7083C17.6295 19.8785 17.2157 19.8785 16.8507 19.8785H16.6073V20.9979H13.9308L13.2982 20.2678L12.5927 20.9979H8.28545V16.2289H12.6654L13.2981 16.9586L13.9795 16.2289H16.9237C17.2642 16.2289 17.824 16.2774 18.0673 16.5206V16.2289H20.6951C20.9629 16.2289 21.474 16.2774 21.8145 16.5206V16.2289H25.7807V16.5208C25.9998 16.3261 26.4136 16.2291 26.7784 16.2291H28.9926V16.5208C29.2362 16.3506 29.5766 16.2291 30.0148 16.2291H31.5234V0.36377V0.36377Z" fill="white"/>
</svg>